<?xml version="1.0" encoding="iso-8859-1"?>
<!-- Generator: Adobe Illustrator 25.1.0, SVG Export Plug-In . SVG Version: 6.00 Build 0)  -->
<svg version="1.1" id="Layer_1" xmlns="http://www.w3.org/2000/svg" xmlns:xlink="http://www.w3.org/1999/xlink" x="0px" y="0px"
	 viewBox="0 0 612 792" style="enable-background:new 0 0 612 792;" xml:space="preserve">
<rect x="284" y="192" style="fill:#0FB0E8;stroke:#231F20;stroke-miterlimit:10;" width="113" height="101"/>
<rect x="168" y="285" style="fill:#0FB0E8;stroke:#231F20;stroke-miterlimit:10;" width="76" height="111"/>
<rect x="356" y="366" style="fill:#0FB0E8;stroke:#231F20;stroke-miterlimit:10;" width="112" height="24"/>
<rect x="477" y="242.5" style="fill:#0FB0E8;stroke:#231F20;stroke-miterlimit:10;" width="36" height="60.5"/>
<rect x="439" y="97" style="fill:#0FB0E8;stroke:#231F20;stroke-miterlimit:10;" width="94" height="51"/>
<rect x="369" y="308" style="fill:#0FB0E8;stroke:#231F20;stroke-miterlimit:10;" width="89" height="152"/>
<rect x="325" y="285" style="fill:#0FB0E8;stroke:#231F20;stroke-miterlimit:10;" width="44" height="63"/>
<rect x="319" y="425" style="fill:#0FB0E8;stroke:#231F20;stroke-miterlimit:10;" width="78" height="17"/>
<rect x="255" y="170" style="fill:#0FB0E8;stroke:#231F20;stroke-miterlimit:10;" width="39" height="60"/>
<rect x="311" y="237" style="fill:#0FB0E8;stroke:#231F20;stroke-miterlimit:10;" width="68" height="48"/>
<rect x="439" y="212" style="fill:#0FB0E8;stroke:#231F20;stroke-miterlimit:10;" width="47" height="60.75"/>
<polygon style="fill:#0FB0E8;stroke:#231F20;stroke-miterlimit:10;" points="238.2,100.436 192.163,85.135 151.474,111.554 
	154.091,66.311 114.999,39.519 162.654,26.857 179.182,-16.12 206.017,21.298 255.325,21.529 224.254,57.316 "/>
</svg>
